<svg width="200" height="100" version="1" contentScriptType="text/ecmascript" xmlns:svg="http://www.w3.org/2000/svg" xmlns:xlink="http://www.w3.org/1999/xlink" xmlns="http://www.w3.org/2000/svg"><title>UNITED KINGDOM</title><defs><svg id="a" width="2" height="1" overflow="hidden" version="1" contentScriptType="text/ecmascript"><path fill="#002B7F" d="M0 0h60v30H0z" transform="scale(.03333)"/><path stroke="#fff" stroke-width=".19998" d="M0 0l2 1M2 0L0 1"/><path stroke="#CE1126" stroke-width=".06666" d="M-.083 0l1 .5M2-.033l-1 .5M2.083 1l-1-.5M0 1.033l1-.5"/><path fill="#fff" d="M25 0h10v30H25z" transform="scale(.03333)"/><path fill="#fff" d="M0 10h60v10H0z" transform="scale(.03333)"/><path fill="#CE1126" d="M27 0h6v30h-6z" transform="scale(.03333)"/><path fill="#CE1126" d="M0 12h60v6H0z" transform="scale(.03333)"/></svg></defs><rect width="100%" height="100%" fill="navy"/><use xlink:href="#a" transform="scale(100)" xlink:type="simple" xlink:show="embed" xlink:actuate="onLoad"/></svg>