<?xml version="1.0"?>
<svg xmlns="http://www.w3.org/2000/svg" viewBox="0 0 165.95749 133.65017" height="400" width="1180" preserveAspectRatio="xMidyMid meet"><path d="M74.404 3.544c2.273.019 4.54.188 6.793.589 6.02-.115 12.687-1.735 18.44 1.638 4.874 1.065 10.248 1.212 14.693 3.986 6.496 2.866 14.664 2.597 19.954 8.392 3.527 6.235 11.55 5.592 14.8 12.352 3.419 6.821 10.062 11.812 11.797 19.404 1.948 5.441 1.97 11.114.461 15.965.996 5.905-4.332 9.92-7.876 13.51-3.776 9.116-14.88 11.186-23.717 10.807-4.803 2.626-3.51 9.535-9.1 11.276-7.397 3.297-15.457 6.94-23.751 4.759-2.773.293-5.7-1.054-8.472-2.191.635-1.726 2.791-8.266 2.04-15.66 13.596 16.687 48.629-19.792 39.471-52.134-9.675 22.644-44.094 16.746-44.333 36.987-2.497-5.803-5.067-11.63-5.344-16.55-.5-8.885 7.993-29.194 7.993-29.194s-4.633 3.652-8.186 10.297C79.231 25.13 58.912 25.823 52.528 8.688 47.165 29.871 66.683 61.101 76.28 49.763a33.151 33.151 0 0 0-.015 7.334c1.998 18.617 7.993 18.617 8.492 30.464.318 7.55-1.39 12.512-2.672 15.125-1.458.296-2.748 1.29-3.79 3.458-6.468 3.61-11.066 9.397-15.59 15.188-2.577 4.565-9.41 12.627-14.388 6.65.018-4.806 9.495-12.448-.029-10.543-5.864-1.038-11.94-1.297-17.195-4.472-6.935-2.58-11.016-9.039-12.306-15.863-.394-3.443 2.576-6.487-2.773-6.188C5.181 88.124 2.252 75.49 4.025 65.78c.298-2.183.791-4.336 1.327-6.47 1.56-7.127 3.936-14.538 9.378-19.607 1.537-6.046 9.347-6.24 10.04-12.24 2.301-5.254 7.993-7.788 12.571-10.127C41.8 12.352 47.395 7.817 54.048 6.089c6.664-1.16 13.536-2.583 20.357-2.545z" fill="#5C6BC0"/></svg>
