<?xml version="1.0"?>
<svg xmlns="http://www.w3.org/2000/svg" viewBox="0 0 307.47831 173.5656" height="162" width="477" preserveAspectRatio="xMidyMid meet"><g fill="#3F51B5" fill-rule="evenodd"><path d="M46.502 105.82c-.698-.018-1.47.091-2.316.364l-10.645 7.254-12.58 5.809-10.644 3.87-3.387 8.708 4.838 7.748-8.225 9.678v4.838l8.71 3.869 1.45-3.87-4.353-1.452 3.387-6.295h2.42l.966 2.91v10.637l1.936 3.394h12.096v-1.94l-6.774-5.808v-15.96l6.29-2.911 4.84 9.678-.97 7.748 2.42 1.93 5.807-4.839-1.451-6.769-4.356-5.322 2.905-9.68.966 9.68 2.42 6.767 3.87 14.032h6.775l-6.291-22.254-.967-16.932 4.354 1.445c2.096-3.137 5.16-5.314 1.935-11.607-.72-2.163-2.399-4.646-5.426-4.72zM80.006 51.96c-1.293 1.454-1.855 4.115-.97 7.984l-1.932 6.531-6.776 6.284-1.933 38.226 2.418 4.84-.485 16.455-6.289 10.639-1.935 19.355 6.773 3.87h10.645l-1.932-4.354-4.357.484-3.389-3.385v-7.738l6.291-5.808 3.387-13.547h2.908l.96 12.093.97 4.354 1.94 5.809-1.456 11.132h15.973l4.838-2.425-10.162-4.354-2.424-32.902-4.84-15.002 1.94-4.354V70.345l6.53-.97 1.208-3.384c-1.693-7.577-3.384-10.324-10.163-14.031h-7.738zM151.62 29.704l-11.618 1.445-5 6.037-.884 12.55-4.278 5.607-6.77 20.81.485 15.477 2.416 17.912-.56 11.35 8.308 3.156-1.455 7.748-10.646 20.8-5.325 10.649 14.032 6.293 7.748.484-.485-3.879-8.232-6.767 13.07-22.256.961-9.678 6.293 2.414v16.942l11.617 19.345-.969 2.424 18.385-.969-1.453-1.93-11.61-5.323-8.232-34.842-9.668-19.84 1.446-18.871 3.869-9.194-1.93-17.416-3.87-6.293 2.415-4.83c1.156.454 2.445.504 3.725.26l3.054.215 2.899-3.87c.846-8.403-2.767-11.663-7.739-15.96zM215.58 23.362l-9.707 3.395-3.869 3.384-1.455 12.092-7.738 15.002 2.9 14.518 4.354 7.738-1.24 7.477c-.296-.044-.582-.1-.89-.13-4.078 7.568-3.023 15.488 2.13 21.686l2.91 15.971.361 6.123-9.593 4.553-3.727 11.19-6.397 7.167 5.295 13.063c6.988 2.814 13.3 1.188 8.65-3.86-1.834-2.405-2.643-6.17-1.74-10.287l5.715-6.976 5.713-1.16 2.291 14.925-2.842 5 .922 3.975 15.287-.135 6.293-.256-1.13-3.65-10.098-1.446 3.385-40.166.97-10.162h7.254v-8.222l-6.779-6.295-1.445-2.414.484-7.739c-.97-11.778 5.592-21.151-.512-33.615l-3.841-4.611v-5.809l7.482.684 3.441-5.322c.057-7.054-6.388-12.056-12.834-15.688zM277.61 3.544c-.91.013-1.908.29-3.006.912-6.103.855-6.047 4.438-9.764 7.338-.152 3.717-.315 7.425-.476 11.133 1.283.97 2.576 1.94 3.869 2.9l.486 2.908c-2.263 3.546-4.517 7.093-6.78 10.649l-.968 8.222c.808 8.708.645 21.286 1.453 29.994-.04.272.057.717.203 1.237l-.687 4.572-.485 7.738 1.455 2.908c2.089 9.342 3.847 20.56 5.944 29.907-7.398 4.247-14.959 11.723-20.945 17.03-5.724 3.792-9.841 3.306-7.502 10.646.484 5.475 1.208 10.477 1.693 15.962 2.909 1.455 4.601.484 5.809-1.693.484-3.87-.001-8.707.484-12.576.263-.404.51-.755.746-1.067.472-.622.898-1.086 1.309-1.496 1.026-1.025 1.956-1.718 3.27-3.732 4.192-1.455 10.322-4.858 14.515-6.303.068-.063.134-.112.2-.172.243 7.104 1.777 17.713-.058 26.592-.808 1.93 16.628 1.74 25.983 1.416-.485-1.293-.97-3.945-1.455-5.238-4.516-2.424-9.032-2.101-13.547-4.526-.637-1.93-1.283-5.238-1.93-7.167 0-5.163 3.414-12.711 3.414-17.874 3.061-2.262 2.709-2.128 5.78-4.39.161-14.992.313-29.653-2.596-44.654 2.424 6.455 5.723 2.757 10.115 11.978.542 3.575 1.389 6.504 4.336 8.006 4.23 1.33 5.741-1.655 5.418-2.815-.884-3.241-4.012-6.378-5.096-8.08-5.324-5.057-6.53-12.815-10.722-17.17-.324-26.856-2.046-33.073-8.72-42.58.324-1.939.648-3.869.971-5.808l6.293-.485c.609-4.106 2.377-9.336-1.455-14.517-.409-2.174-2.645-9.775-7.554-9.705z"/></g></svg>
