<?xml version="1.0" encoding="UTF-8" standalone="no"?>
<svg
   xmlns:svg="http://www.w3.org/2000/svg"
   xmlns="http://www.w3.org/2000/svg"
   version="1.1"
   viewBox="0 0 50 50"
   height="50"
   width="50">
  <g transform="translate(560.92767,-94.718483)">
    <path
       style="fill:#ffffff;fill-opacity:1;stroke:none"
       d="m -554.82652,96.619797 c -2.3267,0 -4.1998,1.87315 -4.1998,4.199803 l 0,37.79777 c 0,2.3266 1.8731,4.1998 4.1998,4.1998 l 19.7389,0 0,-17.639 -6.2996,0 0,-6.29958 6.2996,0 0,-5.45975 c 0,-10.91935 7.5594,-8.81953 14.2791,-8.81953 l 0,6.29962 -6.7197,0 c -1.2598,0 -1.2598,0.84002 -1.2598,1.67989 l 0,6.29977 8.3994,0 -1.6798,6.29958 -6.7196,0 0,17.639 11.7592,0 c 2.3267,0 4.1998,-1.8732 4.1998,-4.1998 l 0,-37.79777 c 0,-2.326653 -1.8731,-4.199803 -4.1998,-4.199803 l -37.7977,0 z" />
  </g>
</svg>
