<?xml version="1.0"?>
<svg xmlns="http://www.w3.org/2000/svg" viewBox="0 0 446.3122 165.14169" height="147" width="433" preserveAspectRatio="xMidyMid meet"><defs><marker id="a" orient="auto" overflow="visible"><path d="M-10.69-4.437L1.328-.017-10.69 4.401c1.92-2.61 1.909-6.18 0-8.84z" fill="#3F51B5" fill-rule="evenodd" stroke="#3F51B5" stroke-width=".6875" stroke-linejoin="round"/></marker></defs><path d="M241.962 3.543s-1.675 10.056-13.487 45.664a1718.371 1718.371 0 0 1-8.684 25.435c6.474.678 13.02 1.175 19.574 1.406 5.567.196 10.814.315 15.908.403-15.222-40.87-13.311-72.908-13.311-72.908zM108.054 26.074s-7.984 23.907-46.602 79.234c13.45 2.99 29.255 4.99 47.29 4.79 12.336-.136 22.226-1.309 30.545-3.088-32.409-44.606-31.233-80.936-31.233-80.936zm255.548 8.812s-6.38 18.962-34.888 62c8.445 1.282 17.895 2.373 28.876 3.077 8.923.571 16.257.586 22.161.23-21.316-34.306-16.149-65.307-16.149-65.307zM216.781 83.192a2649.318 2649.318 0 0 1-6.883 19.237c-8.016 22.12-16.029 38.956-23.426 51.76-14.74-12.657-29.478-25.658-34.358-31.183-2.482-2.81-4.8-5.596-7.01-8.362-9.745 2.43-21.482 4.103-36.264 4.266-20.266.224-37.944-2.29-52.808-5.915-.288.404-.56.792-.85 1.2-15.513 21.717-31.019 36.875-44.6 47.403h432.187c-9.397-8.14-20.9-17.94-35.107-29.78-9.099-7.582-16.37-15.426-22.175-23.216-7.286.814-16.584.916-28.46.155-13.079-.837-24.043-2.208-33.718-3.793a948.766 948.766 0 0 1-12.579 18.042c-6.113 8.558-12.221 16.065-18.216 22.705a2719.061 2719.061 0 0 0-19.137-31.907 217.78 217.78 0 0 1-14.574-28.486 865.201 865.201 0 0 1-19.75-.465c-7.478-.264-14.934-.849-22.272-1.66z" fill="#3F51B5" fill-rule="evenodd"/><path d="M4.458 86.246s37.68 28.994 104.334 28.257c60.319-.667 66.667-26.082 100.71-27.532M264.567 89.144c27.275 2.957 47.28 12.303 92.741 15.216 74.903 4.798 43.177-26.961 15.94-25.36M334.123 77.552s-33.329 5.071-94.914 2.898c-61.586-2.174-122.447-26.084-122.447-26.084" fill="none" stroke="#3F51B5" stroke-width="2.9996047999999997"/><path d="M1149.46-1819.642c-28.082-4.193-81.35-7.83-89.622-8.223" fill="none" stroke="#3F51B5" stroke-width="3.404" marker-end="url(#a)" transform="translate(-922.951 1654.214) scale(.8812)"/></svg>
