<?xml version="1.0" encoding="UTF-8" standalone="no"?>
<!-- Created with Inkscape (http://www.inkscape.org/) -->

<svg
   xmlns:dc="http://purl.org/dc/elements/1.1/"
   xmlns:cc="http://creativecommons.org/ns#"
   xmlns:rdf="http://www.w3.org/1999/02/22-rdf-syntax-ns#"
   xmlns:svg="http://www.w3.org/2000/svg"
   xmlns="http://www.w3.org/2000/svg"
   xmlns:sodipodi="http://sodipodi.sourceforge.net/DTD/sodipodi-0.dtd"
   xmlns:inkscape="http://www.inkscape.org/namespaces/inkscape"
   width="200mm"
   height="160mm"
   viewBox="0 0 708.66141 566.92912"
   id="svg8953"
   version="1.1"
   inkscape:version="0.91 r13725"
   sodipodi:docname="logogreen.svg">
  <defs
     id="defs8955" />
  <sodipodi:namedview
     id="base"
     pagecolor="#ffffff"
     bordercolor="#666666"
     borderopacity="1.0"
     inkscape:pageopacity="0.0"
     inkscape:pageshadow="2"
     inkscape:zoom="0.49497475"
     inkscape:cx="100.16166"
     inkscape:cy="339.51325"
     inkscape:document-units="px"
     inkscape:current-layer="layer1"
     showgrid="false"
     fit-margin-top="10"
     fit-margin-left="10"
     fit-margin-right="10"
     fit-margin-bottom="10"
     inkscape:window-width="1871"
     inkscape:window-height="1056"
     inkscape:window-x="49"
     inkscape:window-y="24"
     inkscape:window-maximized="1"
     showguides="true"
     inkscape:guide-bbox="true"
     inkscape:snap-text-baseline="true"
     showborder="true" />
  <metadata
     id="metadata8958">
    <rdf:RDF>
      <cc:Work
         rdf:about="">
        <dc:format>image/svg+xml</dc:format>
        <dc:type
           rdf:resource="http://purl.org/dc/dcmitype/StillImage" />
        <dc:title></dc:title>
      </cc:Work>
    </rdf:RDF>
  </metadata>
  <g
     inkscape:label="Layer 1"
     inkscape:groupmode="layer"
     id="layer1"
     transform="translate(-40.213088,294.14874)">
    <g
       id="g11788"
       transform="translate(20.203052,-319.2082)" />
    <path
       style="fill:#005000;stroke:none"
       d="M 319.65234 27.533203 C 292.0686 27.379962 264.27349 33.131656 237.32031 37.824219 C 210.41436 44.813269 187.78422 63.154917 169.75391 83.310547 C 151.23618 92.770267 128.21819 103.02191 118.91016 124.26953 C 116.10654 148.54025 84.520091 149.32087 78.306641 173.77148 C 56.294775 194.27181 46.684103 224.24596 40.376953 253.07031 C 38.208333 261.70322 36.213996 270.4119 35.009766 279.23828 C 27.835936 318.51431 39.683278 369.60388 83.496094 380.89648 C 105.12917 379.6858 93.119394 391.99963 94.714844 405.92188 C 99.931094 433.52362 116.43499 459.64454 144.48242 470.08008 C 165.73621 482.91955 190.30955 483.97016 214.02734 488.16602 C 252.54653 480.46367 214.21848 511.36833 214.14258 530.80859 C 234.27301 554.97804 261.91182 522.37295 272.33789 503.91211 C 290.63251 480.49011 309.22794 457.08542 335.38281 442.48438 C 339.59786 433.71957 344.81533 429.7011 350.70898 428.50195 C 355.89729 417.93198 362.80915 397.86421 361.52148 367.32617 C 359.50118 319.41293 335.257 319.41334 327.17578 244.12109 C 326.04888 233.62184 326.18155 223.72323 327.24023 214.45898 C 288.42658 260.31269 209.48835 134.00853 231.17969 48.337891 C 256.99742 117.63795 339.17745 114.82978 342.55859 165.98242 C 356.92628 139.10673 375.66211 124.33789 375.66211 124.33789 C 375.66211 124.33789 341.31758 206.47521 343.33789 242.41016 C 344.45665 262.30944 354.85256 285.87569 364.95117 309.34375 C 365.91325 227.47918 505.12067 251.33639 544.25 159.75195 C 581.28709 290.55491 439.6046 438.08533 384.61719 370.61133 C 387.66353 400.62911 378.88459 427.07735 376.35547 433.93359 C 387.56798 438.53561 399.40806 443.98605 410.625 442.79883 C 444.17064 451.62258 476.76848 436.88745 506.68555 423.55273 C 529.28977 416.51097 524.0653 388.56896 543.48828 377.94922 C 579.23225 379.48189 624.13729 371.11338 639.41016 334.24023 C 653.74186 319.72432 675.2935 303.4828 671.26562 279.60156 C 677.36428 259.98242 677.27984 237.03831 669.40039 215.03125 C 662.38276 184.32816 635.51236 164.14552 621.68555 136.55859 C 608.54546 109.21611 576.09625 111.81455 561.83008 86.597656 C 540.43512 63.163216 507.40265 64.249936 481.13086 52.660156 C 463.15222 41.437996 441.41399 40.848482 421.70703 36.539062 C 398.43568 22.898883 371.47665 29.450699 347.12695 29.912109 C 338.01849 28.290589 328.84692 27.584284 319.65234 27.533203 z "
       transform="translate(40.213088,-294.14874)"
       id="path6268" />
  </g>
</svg>
