<svg xmlns="http://www.w3.org/2000/svg" width="190" height="50"><g fill="white"><path d="M30.529 1.209C22.288 4.05 1.747 13.799 1.747 25.365c0 10.457 13.597 19.092 22.782 23.625l1.281-.594C18.877 44.1 9.285 36.548 9.56 26.49 9.88 14.818 24.838 5.9 31.31 2.52l-.781-1.312zm8.406 4.593c-.246.076-.503.145-.781.25C30.152 9.078 15.09 17.493 15.09 26.21c0 8.22 9.983 15.109 17.531 19.062l1.25-.562c-5.644-3.697-12.59-9.711-12.375-17.563.267-9.76 12.747-17.207 18.188-20.062l-.75-1.282zm13.687 2.72l.125.187c.004-.003.063-.03.063-.032 0-.021-.083-.097-.188-.156zm-5.5.905C40.16 12.451 29.53 19.105 29.53 25.802c0 6.193 6.88 11.523 12.968 14.97l1.375-.657c-4.277-3.146-8.688-7.729-8.53-13.469.189-6.925 7.762-12.48 12.874-15.5l-1.094-1.719zm8.75 4.125a4.29 4.29 0 0 0-.843.22c-4.699 1.738-13.5 6.876-13.5 12.187 0 4.54 5.203 8.411 9.625 10.843l.906-.437c-3.133-2.236-6.49-5.581-6.375-9.813.164-5.998 7.838-10.42 10.906-12l-.719-1z"/><text style="line-height:125%" x="584.203" y="521.604" font-weight="400" font-size="12" font-family="Sans" letter-spacing="0" word-spacing="0" transform="translate(-523.738 -481.798)"><tspan x="584.203" y="521.604" style="-inkscape-font-specification:'Open Sans'" font-size="36" font-family="Open Sans">GROOA</tspan></text></g></svg>
