<svg width="68px" height="48px" viewBox="0 0 68 48" version="1.1" xmlns="http://www.w3.org/2000/svg" xmlns:xlink="http://www.w3.org/1999/xlink">
    <defs></defs>
    <g id="Welcome" stroke="none" stroke-width="1" fill="none" fill-rule="evenodd">
        <g id="Tablet-Portrait---Blog" transform="translate(-176.000000, -1602.000000)" stroke-width="2" stroke="#3F51B5">
            <g id="Top-3-fears" transform="translate(0.000000, 1313.000000)">
                <g id="1.-Fear-of-being-vulnerable" transform="translate(177.000000, 290.000000)">
                    <g id="rain_1">
                        <path d="M32.9999781,0 C29.3028605,0 26.0339354,1.79121299 24.0395607,4.53750675 C22.6699865,3.93646236 21.152703,3.60001518 19.5555345,3.60001518 C13.4804024,3.60001518 8.55553231,8.4353488 8.55553231,14.4000101 C8.55553231,14.4906894 8.56091968,14.5798755 8.56318804,14.669998 C3.66190639,15.7594653 0,20.0583663 0,25.2000304 C0,31.1646917 4.92487006,36 10.9999996,36 L55.000003,36 C61.0751274,36 66,31.1646917 66,25.2000304 C66,20.4431522 62.8639006,16.410544 58.5138909,14.9700267 C58.6109279,14.3931516 58.6666678,13.8038755 58.6666678,13.2000219 C58.6666678,7.23533531 53.7417952,2.40000169 47.6666682,2.40000169 C45.4515095,2.40000169 43.388808,3.04146326 41.6624973,4.14750742 C39.6489962,1.62293879 36.5190574,0 33.0000013,0 L32.9999781,0 Z" id="path14316"></path>
                        <path d="M13,38 L10,46" id="path14333"></path>
                        <path d="M20,38 L17,46" id="path14335"></path>
                        <path d="M28,38 L25,46" id="path14337"></path>
                        <path d="M36,38 L33,46" id="path14339"></path>
                        <path d="M43,38 L40,46" id="path14341"></path>
                        <path d="M51,38 L48,46" id="path14343"></path>
                    </g>
                </g>
            </g>
        </g>
    </g>
</svg>
