<svg xmlns="http://www.w3.org/2000/svg" width="50" height="50" viewBox="0 0 50.000001 50.000002"><path d="M11.759 2.7a9.036 9.036 0 0 0-9.06 9.059v26.482a9.036 9.036 0 0 0 9.06 9.06H38.24a9.036 9.036 0 0 0 9.06-9.06V11.76a9.036 9.036 0 0 0-9.06-9.06H11.76zM9.76 8.691a31.729 31.729 0 0 1 31.732 31.733h-6.318A25.383 25.383 0 0 0 9.76 15.01V8.692zm0 10.686a21.032 21.032 0 0 1 21.047 21.047h-6.18A14.867 14.867 0 0 0 9.761 25.558v-6.18zm4.367 12.312a4.379 4.379 0 0 1 4.368 4.368 4.379 4.379 0 0 1-4.368 4.367 4.379 4.379 0 0 1-4.367-4.367 4.379 4.379 0 0 1 4.367-4.368z" fill="#fff"/></svg>