<svg width="70px" height="88px" viewBox="0 0 70 88" version="1.1" xmlns="http://www.w3.org/2000/svg" xmlns:xlink="http://www.w3.org/1999/xlink">
    <defs></defs>
    <g id="Welcome" stroke="none" stroke-width="1" fill="none" fill-rule="evenodd">
        <g id="Tablet-Portrait---Blog" transform="translate(-175.000000, -1392.000000)" stroke-width="2" stroke="#3F51B5">
            <g id="Top-3-fears" transform="translate(0.000000, 1313.000000)">
                <g id="3.-Being-found-out-to-be-incompetent" transform="translate(177.000000, 77.000000)">
                    <g id="swords_1" transform="translate(0.000000, 5.000000)">
                        <polygon id="path12924" points="0.0975714712 0 4.70018333 15.7819476 25.2482378 42.0310338 11.7085111 59.3267129 4.50131029 53.6802438 2.14932086 56.6845276 11.7591619 64.2137012 0 79.2353819 4.80528044 83 16.5644423 67.9782542 26.1742179 75.5065742 28.5262073 72.5022904 21.3182867 66.8558211 32.9999673 51.9332551 44.680928 66.8558211 37.4737927 72.5022904 39.8257166 75.5065742 49.4355577 67.9782542 61.1947196 83 66 79.2353819 54.2408381 64.2137012 63.8506791 56.6845276 61.4986243 53.6802438 54.2914889 59.3267129 40.7517622 42.0303137 61.2997512 15.7819476 65.9016432 0 51.6899102 8.25284401 32.9999673 32.1280924 14.3100244 8.25284401 0.0975714712 0"></polygon>
                    </g>
                </g>
            </g>
        </g>
    </g>
</svg>
